<?xml version="1.0" encoding="utf-8"?>
<!-- Generator: Adobe Illustrator 23.0.6, SVG Export Plug-In . SVG Version: 6.00 Build 0)  -->
<svg version="1.1" id="Layer_1" xmlns="http://www.w3.org/2000/svg" xmlns:xlink="http://www.w3.org/1999/xlink" x="0px" y="0px"
	 viewBox="0 0 280 150" style="enable-background:new 0 0 280 150;" xml:space="preserve">
<style type="text/css">
	.st0{fill-rule:evenodd;clip-rule:evenodd;fill:#0E6EB6;}
	.st1{fill-rule:evenodd;clip-rule:evenodd;fill:#F26329;}
	.st2{fill-rule:evenodd;clip-rule:evenodd;fill:#09A14A;}
	.st3{fill:#5D6366;}
	.st4{fill-rule:evenodd;clip-rule:evenodd;fill:#5D6366;}
</style>
<g>
	<path class="st0" d="M14.3,75.8l-1.1-1.1c1.9-2,4.6-3.2,7.6-3.2c3,0,5.7,1.2,7.6,3.2l-1.1,1.1c-1.6-1.7-4-2.7-6.5-2.7
		C18.2,73,15.9,74.1,14.3,75.8 M18.1,79.5l-1-1c0.9-1,2.3-1.6,3.7-1.6c1.5,0,2.8,0.6,3.7,1.6l-1,1c-0.7-0.7-1.7-1.1-2.7-1.1
		C19.7,78.3,18.8,78.8,18.1,79.5 M20.8,82.1l-1.9-1.9c0.5-0.5,1.2-0.8,1.9-0.8c0.8,0,1.4,0.4,1.9,0.8L20.8,82.1z M20.8,75.8
		c1.8,0,3.4,0.7,4.5,1.9l1.2-1.2c-1.5-1.5-3.5-2.4-5.7-2.4c-2.3,0-4.3,0.9-5.8,2.4l1.2,1.2C17.4,76.5,19,75.8,20.8,75.8"/>
	<path class="st0" d="M13.6,83.4h14.2c-10.2,25.9-12,41-1.6,40.6C3.5,125.4,6.4,103.3,13.6,83.4"/>
	<path class="st1" d="M26.7,43.8c13-21.2,34.1-23.3,49.1-15.6C92.4,36.7,97.6,56.5,93.4,74c-3.7,15.9-14.1,30.4-27.6,39.7
		c-8.2,5.6-17.5,9.3-27.6,10.9c7.6-2.3,14.3-7,19.6-12.8c3.3-3.5,6.2-7.6,8.5-11.7C74,89.7,77.5,79.6,77.8,70.8
		c0.5-11.8-4.6-23.6-15.5-29C52.8,37,40.1,37.2,26.7,43.8"/>
	<path class="st2" d="M16.9,67.7c10.6-21,32.4-22.5,45.3-13.4c5.2,3.6,8.5,8.8,10,15c1.8,7.7,0.5,15.8-2.4,23.4
		c-2.5,6.8-6.7,13.6-11.9,19.2c-7.3,8.1-17.8,14.3-29,14.1c-4.3,0-8.6-1-12.7-3.4c5.3,2.5,13.5,1.7,18.5-0.4
		c8.3-3.4,15-10.5,19.2-18.3c5.2-9.6,9.2-25,1-33.8C47.4,61.8,32.5,59,16.9,67.7"/>
	<path class="st3" d="M265.9,79.7l2.5-7.2c-0.3,0-0.6,0-0.9,0c-1.7,0-3.1,0.5-4.2,1.6c-1.1,1.1-1.8,2.4-2.2,4.1
		c-0.2,0.9-0.2,1.6,0.1,2.1c0.3,0.5,0.7,0.8,1.4,0.8C263.5,81,264.7,80.6,265.9,79.7 M273.8,69.2l-5.2,14.9h-4.3l0.5-1.4
		c-1.6,1.1-3.1,1.7-4.5,1.7c-1.5,0-2.5-0.6-3.2-1.8c-0.7-1.2-0.8-2.8-0.4-4.7c0.6-2.7,2-4.9,4.2-6.6c2.1-1.7,4.9-2.6,8.3-2.6
		C270.8,68.7,272.4,68.8,273.8,69.2 M256.4,69L251,84.1h-4.3l5.3-15.1H256.4z M253.4,64.7c0.1-0.6,0.4-1.2,1-1.6
		c0.5-0.4,1.1-0.7,1.7-0.7c0.6,0,1.1,0.3,1.4,0.7c0.4,0.5,0.4,1,0.3,1.6c-0.1,0.6-0.5,1.2-1,1.7c-0.5,0.4-1.1,0.6-1.7,0.6
		c-0.6,0-1-0.2-1.4-0.6C253.4,65.9,253.3,65.4,253.4,64.7 M240,80.5l2.8-7.8c-0.3-0.1-0.7-0.1-1.1-0.1c-1.5,0-2.8,0.4-3.9,1.3
		c-1.1,0.9-1.8,2-2.1,3.3c-0.2,1.1-0.1,2,0.5,2.6c0.6,0.7,1.4,1,2.6,1C239,80.7,239.4,80.6,240,80.5 M251,61.4l-7.9,22.5
		c-1.9,0.3-3.6,0.5-5.1,0.5c-2.6,0-4.5-0.7-5.7-2c-1.2-1.3-1.6-3.1-1.1-5.3c0.5-2.3,1.7-4.3,3.7-6c2-1.7,4.3-2.5,7-2.5
		c0.5,0,1.1,0,2.1,0.2l2.6-7.5H251z M221.7,69l-0.6,1.7c1.9-1.3,3.7-2,5.4-2c1.2,0,2.1,0.4,2.6,1.2c0.5,0.8,0.6,1.9,0.2,3.4
		c-0.1,0.4-0.2,0.9-0.4,1.3l-3.3,9.4h-4.3l3.2-9c0.1-0.2,0.2-0.5,0.3-0.8c0.3-1.5,0-2.2-0.9-2.2c-1,0-2.4,0.8-4.1,2.3l-3.4,9.7h-4.3
		l5.3-15.1H221.7z M215.6,61.4l-8,22.7H203l8-22.7H215.6z M197.8,61.4l-8,22.7h-4.2l8-22.7H197.8z M178.8,79.7l2.5-7.2
		c-0.3,0-0.6,0-0.9,0c-1.7,0-3.1,0.5-4.2,1.6c-1.1,1.1-1.8,2.4-2.2,4.1c-0.2,0.9-0.2,1.6,0.1,2.1c0.3,0.5,0.7,0.8,1.4,0.8
		C176.5,81,177.6,80.6,178.8,79.7 M186.8,69.2l-5.2,14.9h-4.3l0.5-1.4c-1.6,1.1-3.1,1.7-4.5,1.7c-1.5,0-2.5-0.6-3.2-1.8
		c-0.7-1.2-0.8-2.8-0.4-4.7c0.6-2.7,2-4.9,4.2-6.6c2.2-1.7,4.9-2.6,8.3-2.6C183.7,68.7,185.3,68.8,186.8,69.2 M168.2,65.8l-1.3,3.2
		h3.2l-1.3,3.3h-3.2l-1.9,4.9c-0.2,0.4-0.3,0.8-0.4,1.2c-0.3,1.3,0,2,0.9,2c0.5,0,1.4-0.3,2.6-0.9l-0.9,4c-1.4,0.7-2.7,1-3.9,1
		c-1.4,0-2.4-0.5-3-1.4c-0.6-0.9-0.7-2.2-0.4-3.6c0.1-0.4,0.3-0.9,0.4-1.3l2.3-5.8h-2.9l1.3-3.3h2.9l1.2-3.2H168.2z M157.7,69
		l-5.3,15.1h-4.3l5.3-15.1H157.7z M154.8,64.7c0.1-0.6,0.5-1.2,1-1.6c0.5-0.4,1.1-0.7,1.7-0.7c0.6,0,1.1,0.3,1.4,0.7
		c0.3,0.5,0.4,1,0.3,1.6c-0.2,0.6-0.5,1.2-1,1.7c-0.6,0.4-1.1,0.6-1.7,0.6c-0.6,0-1.1-0.2-1.4-0.6C154.7,65.9,154.6,65.4,154.8,64.7
		 M140.9,87.4c0.1-0.7-0.4-1.2-1.7-1.5l-1.8-0.4c-0.4,0-1,0.1-1.7,0.4c-0.8,0.3-1.2,0.7-1.3,1.3c-0.2,1.1,0.7,1.6,2.8,1.6
		c1.2,0,2-0.1,2.6-0.3C140.4,88.3,140.7,87.9,140.9,87.4 M140.7,77.4c1.6,0,2.5-1.1,3-3.3c0.1-0.7,0.1-1.2-0.2-1.6
		c-0.3-0.4-0.7-0.6-1.3-0.6c-1.6,0-2.6,1.1-3.1,3.3C138.8,76.7,139.3,77.4,140.7,77.4 M151,69l-1.1,3.3h-2.3c0.2,0.8,0.2,1.6,0,2.4
		c-0.4,1.6-1.2,2.9-2.5,3.9c-1.3,1.1-2.9,1.6-4.8,1.6c-0.9,0-1.6,0-2,0.1c-0.4,0.1-0.7,0.3-0.7,0.7c-0.1,0.2,0,0.3,0.3,0.5
		c0.2,0.1,1.2,0.3,3,0.6c1.8,0.3,3,0.8,3.6,1.6c0.6,0.8,0.8,1.8,0.6,3c-0.7,3.3-3.6,4.9-8.5,4.9c-2.2,0-3.9-0.4-4.9-1
		c-1-0.7-1.4-1.6-1.1-2.7c0.3-1.4,1.8-2.6,4.3-3.4c-1.2-0.7-1.6-1.6-1.4-2.8c0.3-1.4,1.5-2.3,3.5-2.8c-1.4-1.1-1.9-2.5-1.6-4.4
		c0.4-1.5,1.2-2.9,2.7-4c1.4-1.1,3.1-1.7,4.9-1.7H151z M134,69l-5.3,15.1h-4.3l5.3-15.1H134z M131,64.7c0.1-0.6,0.5-1.2,1-1.6
		c0.5-0.4,1.1-0.7,1.7-0.7c0.6,0,1.1,0.3,1.4,0.7c0.3,0.5,0.4,1,0.3,1.6c-0.1,0.6-0.5,1.2-1,1.7c-0.5,0.4-1.1,0.6-1.8,0.6
		c-0.6,0-1.1-0.2-1.4-0.6C131,65.9,130.9,65.4,131,64.7 M112.2,65.1l-5.3,15.1h4.3c2.3,0,4.2-0.7,5.8-2.2c1.6-1.5,2.7-3.4,3.2-5.7
		c0.5-2.1,0.2-3.9-0.8-5.2c-1-1.3-2.7-2-4.9-2H112.2z M108.9,61.4h7.2c3.6,0,6.2,1,7.6,3.1c1.5,2.1,1.8,4.7,1.1,8
		c-0.7,3.4-2.3,6.1-4.8,8.3c-2.4,2.2-5.1,3.3-8,3.3h-11.2L108.9,61.4z"/>
	<path class="st4" d="M102.7,99.6h2.5c0.8,0,1.6-0.2,2.3-0.7c0.6-0.5,0.8-1.1,0.8-1.9c0-0.7-0.2-1.4-0.8-1.9
		c-0.6-0.6-1.5-0.7-2.3-0.7h-2.5V99.6z M102.7,101v5.8h-1.5V93h3.6c1.3,0,2.6,0.2,3.6,1c0.9,0.8,1.3,1.8,1.3,2.9
		c0,1.2-0.4,2.2-1.3,2.9c-1,0.8-2.3,1.1-3.6,1.1H102.7z"/>
	<path class="st4" d="M115.7,105.4c0.9,0,1.7-0.3,2.4-1c0.7-0.7,1-1.5,1-2.5c0-1-0.3-1.9-1-2.5c-0.7-0.7-1.5-1.1-2.4-1.1
		c-1,0-1.8,0.4-2.4,1.1c-0.7,0.7-1,1.5-1,2.5c0,1,0.3,1.8,1,2.5C113.9,105.1,114.7,105.4,115.7,105.4 M115.7,106.8
		c-1.4,0-2.5-0.4-3.5-1.4c-1-1-1.4-2.2-1.4-3.6c0-1.4,0.4-2.6,1.4-3.6c0.9-1,2.1-1.4,3.5-1.4c1.3,0,2.5,0.5,3.5,1.4
		c1,1,1.4,2.2,1.4,3.6c0,1.3-0.4,2.6-1.4,3.6C118.2,106.4,117,106.8,115.7,106.8"/>
	<polygon class="st4" points="126.3,104.3 129,96.7 129.9,96.7 132.6,104.3 135.5,96.8 136.8,96.8 133,106.8 132.1,106.8 
		129.4,99.3 126.7,106.8 125.8,106.8 121.9,96.8 123.4,96.8 	"/>
	<path class="st4" d="M145,100.6c-0.1-0.5-0.3-1-0.6-1.4c-0.5-0.7-1.3-0.9-2.1-0.9c-0.8,0-1.5,0.4-2,1c-0.3,0.4-0.5,0.9-0.7,1.4H145
		z M139.4,101.8L139.4,101.8c0,1,0.4,1.8,1.1,2.5c0.7,0.7,1.6,1.1,2.5,1.1c0.6,0,1.2-0.1,1.7-0.3c0.6-0.2,1.1-0.6,1.6-0.9l0.3-0.3
		v1.5l-0.1,0c-0.5,0.4-1,0.8-1.7,1c-0.6,0.2-1.2,0.3-1.9,0.3c-1.4,0-2.6-0.4-3.6-1.4c-1-1-1.4-2.2-1.4-3.5c0-1.3,0.3-2.6,1.2-3.6
		c0.8-0.9,1.8-1.4,3.1-1.4c1.2,0,2.4,0.4,3.2,1.3c0.8,0.9,1.1,2.2,1.1,3.4l0,0.2H139.4z"/>
	<path class="st4" d="M151,98.3c0.9-1.4,2.5-2.1,4.1-1.2c0,0,0.1,0,0.1,0.1v0.1v1v0.4c-0.1-0.1,0,0-0.1,0c-2.3-1.3-3.6,0.6-4.1,1.8
		v6.3h-1.4v-0.2v-9.6v-0.2h0.2h0.5h0.5h0.2V98.3z"/>
	<polygon class="st4" points="165.4,94.4 161,94.4 161,93.2 171.3,93.2 171.3,94.4 166.9,94.4 166.9,106.6 165.4,106.6 	"/>
	<polygon class="st4" points="189.4,94.6 189.4,99 195,99 195,100.3 189.4,100.3 189.4,105.3 196,105.3 196,106.6 187.9,106.6 
		187.9,93.3 195.7,93.3 195.7,94.6 	"/>
	<path class="st4" d="M200,98.1c0.7-0.8,1.6-1.3,2.8-1.3c1,0,1.9,0.3,2.6,1.1c0.2,0.3,0.4,0.5,0.6,0.8l0.2-0.3
		c0.8-0.9,1.7-1.5,2.9-1.5c1,0,1.9,0.3,2.6,1.1c0.7,0.7,1,1.7,1,2.7v5.9h-1.5v-5.9c0-0.7-0.2-1.3-0.6-1.8c-0.4-0.5-1-0.7-1.7-0.7
		c-0.9,0-1.6,0.5-2.1,1.1c-0.2,0.2-0.3,0.4-0.5,0.6v6.6h-1.5v-5.9c0-0.7-0.2-1.3-0.6-1.8c-0.5-0.5-1-0.7-1.7-0.7
		c-0.9,0-1.6,0.5-2.1,1.1c-0.2,0.2-0.3,0.4-0.5,0.6v6.6h-1.4v-9.5h1.4V98.1z"/>
	<path class="st3" d="M215.8,96.9L215.8,96.9h1.5c0,0.4,0,0.8,0,1.2c0.3-0.5,0.8-0.9,1.4-1.1c1.7-0.6,3.8-0.4,5.1,1
		c1.8,2.1,1.7,5.4,0.1,7.2c-1.7,1.9-4.3,1.5-6.4,0.4c-0.1,0-0.1-0.1-0.1-0.1v4.6h-1.5V96.9z M221.7,98.7c-1.2-0.8-2.9-0.6-4.4,1.3
		v3.9c1.5,1.6,3.4,1.7,4.6,0.8C223.8,103.3,223.7,99.9,221.7,98.7"/>
	<rect x="98" y="86.4" class="st4" width="27.4" height="1.6"/>
	<rect x="147.5" y="86.4" class="st4" width="124.7" height="1.6"/>
	<path class="st4" d="M175.2,105.2c1,0,1.8-0.4,2.4-1c0.7-0.7,1-1.6,1-2.5c0-1-0.4-1.8-1-2.5c-0.6-0.7-1.4-1-2.4-1
		c-0.9,0-1.8,0.3-2.4,1c-0.7,0.7-1,1.6-1,2.5c0,1,0.3,1.8,1,2.5C173.4,104.8,174.3,105.2,175.2,105.2 M175.2,106.5
		c-1.3,0-2.5-0.4-3.5-1.4c-1-1-1.4-2.2-1.4-3.5c0-1.4,0.4-2.6,1.4-3.6c0.9-1,2.1-1.4,3.5-1.4c1.3,0,2.6,0.4,3.5,1.4
		c1,1,1.4,2.2,1.4,3.6c0,1.3-0.4,2.6-1.4,3.5C177.7,106.1,176.5,106.5,175.2,106.5"/>
	<path class="st4" d="M231.7,105.2c1,0,1.7-0.4,2.4-1c0.7-0.7,1-1.6,1-2.5c0-1-0.3-1.8-1-2.5c-0.7-0.7-1.5-1-2.4-1
		c-0.9,0-1.8,0.3-2.4,1c-0.7,0.7-1,1.6-1,2.5c0,1,0.3,1.8,1,2.5C229.9,104.8,230.7,105.2,231.7,105.2 M231.7,106.5
		c-1.4,0-2.5-0.4-3.5-1.4c-1-1-1.4-2.2-1.4-3.5c0-1.4,0.4-2.6,1.4-3.6c0.9-1,2.1-1.4,3.5-1.4c1.3,0,2.5,0.4,3.5,1.4
		c0.9,1,1.4,2.2,1.4,3.6c0,1.3-0.4,2.6-1.4,3.5C234.2,106.1,233,106.5,231.7,106.5"/>
	<polygon class="st4" points="242.2,104.4 244.9,96.8 245.9,96.8 248.6,104.4 251.4,96.9 252.8,96.9 249,106.8 248.1,106.8 
		245.4,99.4 242.7,106.8 241.8,106.8 237.9,96.9 239.4,96.9 	"/>
	<path class="st4" d="M261,100.6c-0.1-0.5-0.3-1-0.6-1.4c-0.5-0.7-1.3-0.9-2.1-0.9c-0.8,0-1.5,0.4-2,1c-0.3,0.4-0.6,0.9-0.7,1.4H261
		z M255.3,101.8L255.3,101.8c0,1,0.4,1.8,1.1,2.5c0.7,0.7,1.5,1.1,2.5,1.1c0.6,0,1.2-0.1,1.7-0.3c0.6-0.2,1.1-0.6,1.6-0.9l0.4-0.3
		v1.5l-0.1,0c-0.5,0.4-1.1,0.8-1.7,1c-0.6,0.2-1.2,0.3-1.9,0.3c-1.4,0-2.6-0.4-3.6-1.4c-1-1-1.4-2.2-1.4-3.5c0-1.3,0.3-2.6,1.2-3.6
		c0.8-0.9,1.9-1.4,3.1-1.4c1.2,0,2.4,0.4,3.2,1.3c0.8,0.9,1.1,2.2,1.1,3.4v0.2H255.3z"/>
	<path class="st4" d="M267,98.2c0.9-1.4,2.5-2.1,4.1-1.2c0,0,0.1,0,0.1,0.1v0.1v1v0.5c-0.1-0.1,0,0-0.1-0.1
		c-2.3-1.3-3.6,0.6-4.1,1.8v6.3h-1.4v-0.2v-9.6v-0.2h0.2h0.5h0.5h0.2V98.2z"/>
</g>
</svg>
