<svg xmlns="http://www.w3.org/2000/svg" viewBox="0 0 100 100"><defs><style>.cls-1{fill:#2484c6;}.cls-2{fill:#fff;}</style></defs><title>LOGO</title><g id="Layer_2" data-name="Layer 2"><g id="Layer_1-2" data-name="Layer 1"><rect class="cls-1" width="100" height="100"/><rect class="cls-2" x="15.59" y="73.05" width="10.9" height="0.76"/><polygon class="cls-2" points="15.59 71.81 15.59 70.64 26.4 70.64 26.45 71.81 15.59 71.81"/><polygon class="cls-2" points="15.59 69.38 15.59 67.77 26.33 67.77 26.36 69.38 15.59 69.38"/><polygon class="cls-2" points="15.59 66.5 15.59 64.17 26.22 64.17 26.27 66.5 15.59 66.5"/><polygon class="cls-2" points="15.59 62.94 15.59 59.33 46.53 59.33 46.76 62.94 28.04 62.94 25.9 59.33 26.16 62.94 15.59 62.94"/><polygon class="cls-2" points="15.59 58.08 15.59 53.61 34.07 53.61 36.81 58.08 36.55 53.61 46.76 53.61 46.76 58.08 15.59 58.08"/><polygon class="cls-2" points="15.59 52.36 15.59 43.64 28.09 43.68 33.27 52.36 15.59 52.36"/><rect class="cls-2" x="36.55" y="43.64" width="10.21" height="8.72"/><polygon class="cls-2" points="46.76 64.17 46.76 66.5 30.43 66.5 28.88 64.17 46.76 64.17"/><polygon class="cls-2" points="46.76 67.77 46.76 69.38 32.29 69.38 31.23 67.77 46.76 67.77"/><polygon class="cls-2" points="46.76 70.64 46.76 71.81 33.89 71.81 33.13 70.64 46.76 70.64"/><polygon class="cls-2" points="46.76 73.06 46.76 73.81 35.22 73.81 34.72 73.06 46.76 73.06"/><rect class="cls-2" x="49.67" y="73.05" width="10.66" height="0.76"/><rect class="cls-2" x="49.67" y="70.64" width="10.66" height="1.17"/><rect class="cls-2" x="49.67" y="67.77" width="10.66" height="1.61"/><rect class="cls-2" x="49.67" y="64.17" width="10.66" height="2.33"/><rect class="cls-2" x="49.67" y="59.33" width="10.66" height="3.61"/><rect class="cls-2" x="49.67" y="53.61" width="10.66" height="4.47"/><rect class="cls-2" x="49.67" y="43.64" width="10.66" height="8.72"/><path class="cls-2" d="M78.66,43.13h5.66v9.23H63.72a16.45,16.45,0,0,1,14.94-9.23"/><path class="cls-2" d="M75.17,53.61a6,6,0,0,0-2.12,4.47H62.31a15.24,15.24,0,0,1,.89-4.47Z"/><path class="cls-2" d="M73.14,59.33a6,6,0,0,0,2.13,3.61H62.94a14.74,14.74,0,0,1-.61-3.61Z"/><path class="cls-2" d="M84.32,64.17V66.5H64.54a13.36,13.36,0,0,1-1.17-2.33Z"/><path class="cls-2" d="M84.32,67.77v1.61H66.8a16.48,16.48,0,0,1-1.4-1.61Z"/><path class="cls-2" d="M84.32,70.64v1.17H69.89a16.74,16.74,0,0,1-1.68-1.17Z"/><path class="cls-2" d="M84.32,73.05v.65H74.67s-.32.12-2.24-.65Z"/><path class="cls-2" d="M72.84,38.67c-.28-.42-1-1.41-2.41-3.43a39.57,39.57,0,0,1-2.5-3.77l1.76-1.2a6.2,6.2,0,0,0,.4.8,1,1,0,0,0,.71.53h.07a.47.47,0,0,0,.47-.33,1.19,1.19,0,0,0,0-.33V28.25h-2.5v-2h5.84l-.27-.37c-.09-.11-.14-.2-.18-.25a3.45,3.45,0,0,1-.44-1.85A2.85,2.85,0,0,1,75,21.58a4.55,4.55,0,0,1,2.88-.84,6.15,6.15,0,0,1,4.43,2.2,11.38,11.38,0,0,1,1.83,3.15V38.61H81.58V28.25H79.16V38.61h-2.5v-5.3H75.58l-1-1.87,2.13,0V28.25H73.87v3a2.06,2.06,0,0,1-.47,1.31,2.31,2.31,0,0,1-1.36.91l-.34.08.23.28c.25.31.58.72,1,1.25.57.63,1.17,1.36,1.82,2.2Zm4.73-16a2.71,2.71,0,0,0-.41,0,1.51,1.51,0,0,0-1.06.63,1.73,1.73,0,0,0-.26,1A1.81,1.81,0,0,0,77,26a2.8,2.8,0,0,0,.93.23h2.62c1,0,1,0,1-.23V26A4.76,4.76,0,0,0,77.57,22.62Z"/><path class="cls-2" d="M61.28,39.54a13.88,13.88,0,0,1-1.05-.95l-.06-.05h-.8A2.79,2.79,0,0,1,57.75,38a1.41,1.41,0,0,1-.62-1.23,1.32,1.32,0,0,1,.44-1,1.56,1.56,0,0,1,1.15-.41,2,2,0,0,1,.72.14A3.57,3.57,0,0,1,61,36.85a.24.24,0,0,0,.22.11,1.08,1.08,0,0,0,.38-.1l.1,0a1.93,1.93,0,0,0,.76-.57,1.89,1.89,0,0,0,.38-1.61.59.59,0,0,0-.13-.28.4.4,0,0,0-.32-.14.47.47,0,0,0-.16,0,3.38,3.38,0,0,0-.56.2c-.13.05-.26.11-.4.15a2.06,2.06,0,0,1-.62.09,2.61,2.61,0,0,1-1-.21,3.91,3.91,0,0,1-1.36-1A4,4,0,0,1,57,31a1.28,1.28,0,0,1,.47-1,1.49,1.49,0,0,1,1-.38h3.52V28.25H54.92V38.61H52.41V28.25H50.06V38.61H47.55V33.85l-.28.12a1.16,1.16,0,0,1-.37.07,1.76,1.76,0,0,1-.31,0l-.27-.06,0,.3a3.32,3.32,0,0,1-.88,2.8,3.83,3.83,0,0,1-2.68.85,4.34,4.34,0,0,1-2.86-1.24,9.71,9.71,0,0,1-2.54-3.77l1.83-.77.36.73a10.78,10.78,0,0,0,.71,1.34,3.51,3.51,0,0,0,2,1.62,2.2,2.2,0,0,0,.44.05,1.29,1.29,0,0,0,.88-.31,1.67,1.67,0,0,0,.29-1.84,1.73,1.73,0,0,0-1.47-.91h-.63l-.39,0-.62-1.36c.33-.09.83-.27,1.16-.39a1.76,1.76,0,0,0,.92-.67,1.41,1.41,0,0,0,.22-.8A1,1,0,0,0,43,29a1,1,0,0,0-.83-.39,2.23,2.23,0,0,0-1.34.53,4.24,4.24,0,0,0-.75.74c-.53-1.2-.78-1.77-.93-2.05l.22-.19a4.74,4.74,0,0,1,2.86-1,3.52,3.52,0,0,1,2.37.8,2.49,2.49,0,0,1,.92,2,2.54,2.54,0,0,1-.65,1.82l-.23.24.3.13a3.63,3.63,0,0,1,.41.23,2.14,2.14,0,0,0,1,.42h.07s1.15-.13,1.15-.52V26.26H62.6l-.36-.39c-.39-.41-1-1.13-1.13-1.27a2.58,2.58,0,0,1-.38-1.44,2.68,2.68,0,0,1,1.83-2.33,4.36,4.36,0,0,1,1.19-.18,2.48,2.48,0,0,1,1,.19c.74.35.8.57.67,1.78l-.08,0-.44-.14a3,3,0,0,0-.9-.15,1.44,1.44,0,0,0-.73.16,1.3,1.3,0,0,0-.65,1,1.42,1.42,0,0,0,.36,1.2l.25.31c.1.12.19.24.27.32s.36.37.54.54l.33.31v5.13H59.51l.2.34c0,.06.36.63.48.78l.08.1a1.74,1.74,0,0,0,.83.67,1.35,1.35,0,0,0,.29,0,2.3,2.3,0,0,0,.81-.2l.14-.06a4.52,4.52,0,0,1,1.51-.26,1.89,1.89,0,0,1,.93.19c.58.34.65,1.12.65,1.77a3.51,3.51,0,0,1-2.11,3.22,1.71,1.71,0,0,1-.26.14l-.37.18.34.22c.46.31,2.09,1.23,2.24,1.32l0,0-1.39,1.58Z"/><path class="cls-2" d="M21.8,41.24l-.21,0c-.34-.09-.56-.43-.78-.75l-.13-.2-.29-.41h.23a1.31,1.31,0,0,0,.46-.07.68.68,0,0,0,.32-.2.51.51,0,0,0,.11-.48.66.66,0,0,0-.26-.32l-.05,0-.47-.39-5-4.09v-8H34.63V38.6H32.12V32.72h-3V34a1.15,1.15,0,0,1-.13.53.65.65,0,0,1-.66.42h-.05c-.18,0-.65-.2-1.7-1.44s-1.22-1.74-1.22-1.87c0-.7.33-1,1.06-1h5.75V28.25H23.67v4.08a1.56,1.56,0,0,1-.59,1.27,2.5,2.5,0,0,1-1.62.64l-1.92-1.6a3.43,3.43,0,0,0,1.4-.2.43.43,0,0,0,.22-.47V28.25h-2.9v5.49l1.41,1.18L22.15,37l.94.79a2,2,0,0,1,.8,1.34,1.65,1.65,0,0,1-.26,1.1,2.49,2.49,0,0,1-.6.56A2.41,2.41,0,0,1,21.8,41.24Z"/><polyline class="cls-2" points="30.44 26.27 36.05 26.27 36.05 28.25 33.78 28.25"/></g></g></svg>